<svg version="1.1" xmlns="http://www.w3.org/2000/svg" xmlns:xlink="http://www.w3.org/1999/xlink" width="30px" height="30px" viewBox="0,0,256,256"><g fill="#ffffff" fill-rule="nonzero" stroke="none" stroke-width="1" stroke-linecap="butt" stroke-linejoin="miter" stroke-miterlimit="10" stroke-dasharray="" stroke-dashoffset="0" font-family="none" font-weight="none" font-size="none" text-anchor="none" style="mix-blend-mode: normal"><g transform="scale(8.53333,8.53333)"><path d="M13.01172,4.99219c-0.552,0 -1,0.448 -1,1v17h5v-17c0,-0.552 -0.448,-1 -1,-1zM1.01172,6.99219v20h25v-2h-23v-18zM20.01172,6.99219c-0.552,0 -1,0.448 -1,1v15h5v-15c0,-0.552 -0.448,-1 -1,-1zM6.01172,10.99219c-0.552,0 -1,0.448 -1,1v11h5v-11c0,-0.552 -0.448,-1 -1,-1z"></path></g></g></svg>