<svg xmlns="http://www.w3.org/2000/svg" version="1.1" xmlns:xlink="http://www.w3.org/1999/xlink" width="512" height="512" x="0" y="0" viewBox="0 0 48 48" style="enable-background:new 0 0 512 512" xml:space="preserve" class=""><g><path d="M24.53 27.47a.763.763 0 0 0-1.06 0l-2 2a.75.75 0 0 0 1.06 1.06l.72-.72V34a.75.75 0 0 0 1.5 0v-4.19l.72.72a.768.768 0 0 0 1.06 0 .75.75 0 0 0 0-1.06z" fill="#ffffff" opacity="1" data-original="#000000" data-darkreader-inline-fill="" style="--darkreader-inline-fill: #181a1b;" class=""></path><path d="M36.5 13.25H22.93a.738.738 0 0 1-.67-.417L21.083 10.5a2.224 2.224 0 0 0-2.013-1.25H11.5a2.252 2.252 0 0 0-2.25 2.25v21a2.252 2.252 0 0 0 2.25 2.25h5.723a7.742 7.742 0 0 0 13.554 0H36.5a2.252 2.252 0 0 0 2.25-2.25v-17a2.252 2.252 0 0 0-2.25-2.25zm-12.5 24A6.25 6.25 0 1 1 30.25 31 6.257 6.257 0 0 1 24 37.25zm13.25-4.75a.75.75 0 0 1-.75.75h-5.086a7.75 7.75 0 1 0-14.828 0H11.5a.75.75 0 0 1-.75-.75v-21a.75.75 0 0 1 .75-.75h7.57a.738.738 0 0 1 .67.417l1.05 2.083H17a.75.75 0 0 0 0 1.5h19.5a.75.75 0 0 1 .75.75z" fill="#ffffff" opacity="1" data-original="#000000" data-darkreader-inline-fill="" style="--darkreader-inline-fill: #181a1b;" class=""></path></g></svg>