<svg version="1.1" xmlns="http://www.w3.org/2000/svg" xmlns:xlink="http://www.w3.org/1999/xlink" width="24px" height="24px" viewBox="0,0,256,256"><g fill="#ffffff" fill-rule="nonzero" stroke="none" stroke-width="1" stroke-linecap="butt" stroke-linejoin="miter" stroke-miterlimit="10" stroke-dasharray="" stroke-dashoffset="0" font-family="none" font-weight="none" font-size="none" text-anchor="none" style="mix-blend-mode: normal"><g transform="scale(10.66667,10.66667)"><path d="M4,17.5c-0.20221,-0.00003 -0.3845,-0.12185 -0.46188,-0.30867c-0.07738,-0.18682 -0.03461,-0.40185 0.10836,-0.54485l5.64652,-5.64648l-5.64652,-5.64648c-0.18949,-0.19619 -0.18678,-0.50804 0.00609,-0.70091c0.19287,-0.19287 0.50472,-0.19558 0.70091,-0.00609l6,6c0.09378,0.09374 0.14646,0.2209 0.14646,0.3535c0,0.1326 -0.05269,0.25976 -0.14646,0.3535l-6,6c-0.09365,0.09391 -0.22086,0.14663 -0.35348,0.14648zM20.5,19c0.00008,-0.13263 -0.05258,-0.25985 -0.14636,-0.35364c-0.09378,-0.09378 -0.22101,-0.14644 -0.35364,-0.14636h-10c-0.27614,0 -0.5,0.22386 -0.5,0.5c0,0.27614 0.22386,0.5 0.5,0.5h10c0.13263,0.00008 0.25985,-0.05258 0.35364,-0.14636c0.09378,-0.09378 0.14644,-0.22101 0.14636,-0.35364z"></path></g></g></svg>