<svg version="1.1" xmlns="http://www.w3.org/2000/svg" xmlns:xlink="http://www.w3.org/1999/xlink" width="50px" height="50px" viewBox="0,0,256,256"><g fill="#ffffff" fill-rule="nonzero" stroke="none" stroke-width="1" stroke-linecap="butt" stroke-linejoin="miter" stroke-miterlimit="10" stroke-dasharray="" stroke-dashoffset="0" font-family="none" font-weight="none" font-size="none" text-anchor="none" style="mix-blend-mode: normal"><g transform="scale(5.12,5.12)"><path d="M23,5c-1.09375,0 -2,0.90625 -2,2v5h-14.33203c-2.54687,0 -4.66797,2.01953 -4.66797,4.53125v22.9375c0,2.51172 2.12109,4.53125 4.66797,4.53125h36.66406c2.54688,0 4.66797,-2.01953 4.66797,-4.53125v-22.9375c0,-2.51172 -2.12109,-4.53125 -4.66797,-4.53125h-13.33203v-5c0,-1.09375 -0.90625,-2 -2,-2zM23,7h5v5.83203c-0.01953,0.10938 -0.01953,0.21875 0,0.32422v1.84375h-5v-1.83203c0.01953,-0.10937 0.01953,-0.21875 0,-0.32422zM6.66797,14h14.33203v1c0,1.09375 0.90625,2 2,2h5c1.09375,0 2,-0.90625 2,-2v-1h13.33203c1.50391,0 2.66797,1.14063 2.66797,2.53125v22.9375c0,1.39063 -1.16406,2.53125 -2.66797,2.53125h-36.66406c-1.50391,0 -2.66797,-1.14062 -2.66797,-2.53125v-22.9375c0,-1.39062 1.16406,-2.53125 2.66797,-2.53125zM14.96094,18c-2.04297,0 -3.58594,0.94922 -4.23437,2.375c-0.58203,1.27734 -0.5,2.77344 -0.16797,4.28516c-0.20312,0.34375 -0.33594,0.74609 -0.27734,1.25c0.07422,0.58594 0.23438,1.05859 0.52734,1.42969c0.08984,0.11719 0.23828,0.10938 0.34766,0.19531c0.09766,0.41406 0.19531,0.83203 0.36719,1.17188c0.11719,0.23438 0.24609,0.44922 0.38672,0.64063c0.01563,0.02344 0.05078,0.03906 0.0625,0.05859c0.00391,0.35547 0.00391,0.70313 -0.01953,1.0625c-0.06641,0.13281 -0.21484,0.30859 -0.66016,0.52734c-0.48047,0.23828 -1.17187,0.47656 -1.90234,0.78516c-0.73437,0.3125 -1.51953,0.71094 -2.17969,1.37109c-0.65625,0.66016 -1.13672,1.61719 -1.21094,2.78516c0,0.02344 0,0.04297 0,0.0625v1c0,0.55078 0.44922,1 1,1h16c0.55078,0 1,-0.44922 1,-1v-1c0,-0.01953 0,-0.03906 0,-0.0625c-0.07422,-1.16797 -0.55078,-2.12109 -1.20703,-2.78125c-0.65625,-0.66406 -1.44141,-1.05859 -2.16797,-1.375c-0.73047,-0.3125 -1.42187,-0.54687 -1.89844,-0.78516c-0.44141,-0.21875 -0.59375,-0.39453 -0.66016,-0.52734c-0.02344,-0.36328 -0.02344,-0.70703 -0.01953,-1.06641c0.01563,-0.02344 0.05078,-0.04297 0.0625,-0.0625c0.14453,-0.19531 0.26953,-0.40625 0.38672,-0.64062c0.16406,-0.33984 0.25391,-0.75781 0.34766,-1.16797c0.11328,-0.08203 0.25781,-0.07812 0.34766,-0.19141c0.29297,-0.37109 0.45313,-0.84375 0.52734,-1.42969c0.05859,-0.51172 -0.07812,-0.91797 -0.28516,-1.26172c0.20313,-0.71875 0.46094,-1.59766 0.375,-2.69531c-0.05078,-0.67187 -0.22266,-1.38281 -0.67187,-2c-0.40625,-0.5625 -1.08594,-0.95703 -1.875,-1.125c-0.61719,-0.5625 -1.42187,-0.82812 -2.30078,-0.82812zM14.96094,20c0.75391,0 1.07422,0.25781 1.05859,0.23438c0.15625,0.26563 0.42578,0.44922 0.73047,0.49219c0.45703,0.0625 0.62109,0.19922 0.76953,0.40234c0.14844,0.20313 0.26172,0.54688 0.29297,0.98047c0.07031,0.86719 -0.19531,2.00781 -0.35937,2.5c-0.13281,0.39063 -0.01172,0.82031 0.30469,1.08203c0.00391,0.01172 -0.02344,-0.04297 -0.02734,-0.01953c-0.03516,0.28516 -0.08203,0.34375 -0.08984,0.36328c-0.35547,0.13281 -0.60547,0.45313 -0.64453,0.82813c-0.02734,0.26563 -0.15234,0.66016 -0.29687,0.95313c-0.07422,0.14844 -0.15234,0.27344 -0.20312,0.34375c-0.03516,0.04688 -0.04297,0.04688 -0.00781,0.02344c-0.28125,0.18359 -0.44922,0.5 -0.44922,0.83203c0,0.59375 -0.02344,1.11328 0.04297,1.85547c0.00781,0.08594 0.02734,0.17578 0.05859,0.25781c0.32031,0.85156 1.03125,1.32813 1.69531,1.65625c0.66406,0.33203 1.36719,0.56641 2,0.83594c0.63281,0.26953 1.17188,0.57422 1.53516,0.94141c0.34766,0.34766 0.55078,0.75781 0.60547,1.4375h-13.95312c0.05469,-0.67578 0.25781,-1.08594 0.60938,-1.4375c0.35938,-0.36719 0.91016,-0.66797 1.54297,-0.9375c0.63281,-0.27344 1.33984,-0.50781 2.00781,-0.83984c0.66406,-0.32812 1.37891,-0.80469 1.69531,-1.65625c0.03516,-0.08203 0.05469,-0.17187 0.0625,-0.25781c0.06641,-0.74219 0.04297,-1.26172 0.04297,-1.85547c0,-0.33984 -0.17578,-0.65625 -0.46094,-0.83984c0.04297,0.02734 0.02734,0.02734 -0.00781,-0.02344c-0.05469,-0.07031 -0.13281,-0.19531 -0.20703,-0.34375c-0.14844,-0.29687 -0.27734,-0.6875 -0.30469,-0.94531c-0.04297,-0.375 -0.28906,-0.69531 -0.64453,-0.82812c-0.00781,-0.01953 -0.05469,-0.07422 -0.08984,-0.36328c-0.00391,-0.03516 -0.04297,0.03516 -0.03516,0.02734c0.30078,-0.24609 0.43359,-0.64844 0.33203,-1.02734c-0.37109,-1.43359 -0.36328,-2.71094 -0.01953,-3.46875c0.34375,-0.75391 0.89453,-1.20312 2.41406,-1.20312zM26,21v2h18v-2zM26,25v2h14v-2zM26,29v2h11v-2zM26,33v2h14v-2z"></path></g></g></svg>