<svg xmlns="http://www.w3.org/2000/svg" version="1.1" xmlns:xlink="http://www.w3.org/1999/xlink" width="512" height="512" x="0" y="0" viewBox="0 0 682.667 682.667" style="enable-background:new 0 0 512 512" xml:space="preserve" class=""><g><defs><clipPath id="a" clipPathUnits="userSpaceOnUse"><path d="M0 512h512V0H0Z" opacity="1" data-original="#000000"></path></clipPath></defs><g clip-path="url(#a)" transform="matrix(1.33333 0 0 -1.33333 0 682.667)"><path d="M0 0c11.716-11.716 11.716-30.711 0-42.427-11.716-11.715-30.71-11.715-42.426 0-11.716 11.716-11.716 30.711 0 42.427C-30.71 11.716-11.716 11.716 0 0Z" style="stroke-width: 30; stroke-linecap: round; stroke-linejoin: round; stroke-miterlimit: 10; stroke-dasharray: none; stroke-opacity: 1; --darkreader-inline-stroke: #e8e6e3;" transform="translate(233.654 318.507)" fill="none" stroke="#000000" stroke-width="30" stroke-linecap="round" stroke-linejoin="round" stroke-miterlimit="10" stroke-dasharray="none" stroke-opacity="" data-original="#000000" data-darkreader-inline-stroke="" class=""></path><path d="M0 0c11.716-11.716 11.716-30.711 0-42.427-11.715-11.715-30.71-11.715-42.426 0-11.716 11.716-11.716 30.711 0 42.427C-30.71 11.716-11.715 11.716 0 0Z" style="stroke-width: 30; stroke-linecap: round; stroke-linejoin: round; stroke-miterlimit: 10; stroke-dasharray: none; stroke-opacity: 1; --darkreader-inline-stroke: #e8e6e3;" transform="translate(403.36 318.507)" fill="none" stroke="#000000" stroke-width="30" stroke-linecap="round" stroke-linejoin="round" stroke-miterlimit="10" stroke-dasharray="none" stroke-opacity="" data-original="#000000" data-darkreader-inline-stroke="" class=""></path><path d="m0 0 42.426-212.132" style="stroke-width: 30; stroke-linecap: round; stroke-linejoin: round; stroke-miterlimit: 10; stroke-dasharray: none; stroke-opacity: 1; --darkreader-inline-stroke: #e8e6e3;" transform="translate(276.081 403.36)" fill="none" stroke="#000000" stroke-width="30" stroke-linecap="round" stroke-linejoin="round" stroke-miterlimit="10" stroke-dasharray="none" stroke-opacity="" data-original="#000000" data-darkreader-inline-stroke="" class=""></path><path d="m0 0-188.654-188.654c11.716-11.716 11.716-30.71 0-42.427-11.717-11.716-30.71-11.716-42.427 0l-21.213-21.213c-11.716-11.716-11.716-30.71 0-42.426l169.706-169.706c11.716-11.716 30.71-11.716 42.426 0l21.213 21.213c-11.716 11.717-11.716 30.711 0 42.427 11.717 11.716 30.711 11.716 42.427 0l188.654 188.654c11.716 11.716 11.716 30.71 0 42.426L42.426 0C30.71 11.716 11.716 11.716 0 0Z" style="stroke-width: 30; stroke-linecap: round; stroke-linejoin: round; stroke-miterlimit: 10; stroke-dasharray: none; stroke-opacity: 1; --darkreader-inline-stroke: #e8e6e3;" transform="translate(276.081 488.213)" fill="none" stroke="#000000" stroke-width="30" stroke-linecap="round" stroke-linejoin="round" stroke-miterlimit="10" stroke-dasharray="none" stroke-opacity="" data-original="#000000" data-darkreader-inline-stroke="" class=""></path><path d="m0 0 21.213-21.213" style="stroke-width: 30; stroke-linecap: round; stroke-linejoin: round; stroke-miterlimit: 10; stroke-dasharray: none; stroke-opacity: 1; --darkreader-inline-stroke: #e8e6e3;" transform="translate(87.427 257.132)" fill="none" stroke="#000000" stroke-width="30" stroke-linecap="round" stroke-linejoin="round" stroke-miterlimit="10" stroke-dasharray="none" stroke-opacity="" data-original="#000000" data-darkreader-inline-stroke="" class=""></path><path d="m0 0 42.426-42.426" style="stroke-width: 30; stroke-linecap: round; stroke-linejoin: round; stroke-miterlimit: 10; stroke-dasharray: none; stroke-opacity: 1; --darkreader-inline-stroke: #e8e6e3;" transform="translate(151.066 193.493)" fill="none" stroke="#000000" stroke-width="30" stroke-linecap="round" stroke-linejoin="round" stroke-miterlimit="10" stroke-dasharray="none" stroke-opacity="" data-original="#000000" data-darkreader-inline-stroke="" class=""></path><path d="m0 0 21.213-21.213" style="stroke-width: 30; stroke-linecap: round; stroke-linejoin: round; stroke-miterlimit: 10; stroke-dasharray: none; stroke-opacity: 1; --darkreader-inline-stroke: #e8e6e3;" transform="translate(235.919 108.64)" fill="none" stroke="#000000" stroke-width="30" stroke-linecap="round" stroke-linejoin="round" stroke-miterlimit="10" stroke-dasharray="none" stroke-opacity="" data-original="#000000" data-darkreader-inline-stroke="" class=""></path></g></g></svg>