<svg width="80" height="80" viewBox="0 0 80 80" fill="none" xmlns="http://www.w3.org/2000/svg">
<path d="M66.6667 20C66.6667 20 59.025 14.02 50 13.3333L49.1867 14.96C57.3467 16.9566 61.09 19.8183 65 23.3333C58.2583 19.8916 51.6017 16.6666 40 16.6666C28.3984 16.6666 21.7417 19.8916 15 23.3333C18.91 19.8183 23.3634 16.6416 30.8134 14.96L30 13.3333C20.5317 14.2283 13.3334 20 13.3334 20C13.3334 20 4.79837 32.375 3.33337 56.6666C11.9367 66.5883 25 66.6666 25 66.6666L27.7317 63.0249C23.095 61.4133 17.8584 58.535 13.3334 53.3333C18.73 57.4166 26.875 61.6666 40 61.6666C53.125 61.6666 61.27 57.4166 66.6667 53.3333C62.1417 58.535 56.905 61.4133 52.2683 63.0249L55 66.6666C55 66.6666 68.0633 66.5883 76.6667 56.6666C75.2017 32.375 66.6667 20 66.6667 20ZM29.1667 50C25.945 50 23.3334 47.015 23.3334 43.3333C23.3334 39.6516 25.945 36.6666 29.1667 36.6666C32.3884 36.6666 35 39.6516 35 43.3333C35 47.015 32.3884 50 29.1667 50ZM50.8333 50C47.6117 50 45 47.015 45 43.3333C45 39.6516 47.6117 36.6666 50.8333 36.6666C54.055 36.6666 56.6667 39.6516 56.6667 43.3333C56.6667 47.015 54.055 50 50.8333 50Z" fill="#8A9CFF"/>
</svg>
