<svg xmlns="http://www.w3.org/2000/svg" version="1.1" xmlns:xlink="http://www.w3.org/1999/xlink" x="0" y="0" viewBox="0 0 512 513" style="enable-background:new 0 0 512 512" xml:space="preserve" fill-rule="evenodd" class=""><g><path d="M256 .5C114.71.5 0 115.21 0 256.5s114.71 256 256 256 256-114.71 256-256S397.29.5 256 .5zm0 18c131.356 0 238 106.644 238 238s-106.644 238-238 238-238-106.644-238-238 106.644-238 238-238zm47 241.454c0-25.957-21.042-46.998-46.998-46.998H256a46.997 46.997 0 0 0-47 47v100.059a47 47 0 0 0 47 47h.002c25.956 0 46.998-21.042 46.998-46.998zm-18 0c0-16.016-12.983-28.998-28.998-28.998H256a28.998 28.998 0 0 0-29 29v100.059a29 29 0 0 0 29 29h.002c16.015 0 28.998-12.983 28.998-28.998zm-29-153.969c-25.94 0-47 21.06-47 47s21.06 47 47 47 47-21.06 47-47-21.06-47-47-47zm0 18c16.006 0 29 12.995 29 29 0 16.006-12.994 29-29 29s-29-12.994-29-29c0-16.005 12.994-29 29-29z" fill="#000000" opacity="1" data-original="#000000" class=""></path></g></svg>