<svg width="80" height="80" viewBox="0 0 80 80" fill="none" xmlns="http://www.w3.org/2000/svg">
<path d="M69.45 22.4667C68.7834 22.9 67.8334 23.3 67.4334 23.75C67.2834 23.9 67.2 24.0667 67.2334 24.2333V25.95L66.7334 27.6333L66.2334 29.3L65.6834 31.1333L64.55 34.8833L63.45 38.5833L62.6167 41.3667C62.6167 41.8 62.6 42.2333 62.5667 42.65C62.45 44.25 62.1167 45.7833 61.5834 47.2167C61.2667 48.1 60.8834 48.95 60.4167 49.75C60.25 50.0667 60.05 50.3833 59.85 50.6833C59.1834 51.7333 58.3834 52.7 57.5 53.55C56.8167 54.2333 56.0667 54.8667 55.25 55.4C55.25 55.4 55.25 55.4 55.2334 55.4C55.1 55.5167 54.95 55.6167 54.7834 55.7C54.2667 56.05 53.7167 56.35 53.15 56.6167C52.7667 56.8167 52.3834 56.9833 51.9834 57.1333C51.9 57.1833 51.8 57.2167 51.7167 57.25C50.7667 57.7 49.6667 58 48.5667 58.15C48.5 58.1667 48.45 58.1667 48.3834 58.1833C47.7167 58.3 47.0667 58.4 46.4 58.45C46.1 58.4833 45.7834 58.5 45.4834 58.5L44.3 58.4333L38.6 58.1333C38.6 58.1167 38.5834 58.1333 38.5834 58.1333L35.7167 57.9833C35.5 57.9833 35.2667 57.9833 35.05 57.9667C34.15 57.9333 33.2834 57.8333 32.4167 57.65C32.4 57.65 32.4 57.65 32.4 57.65C30.8167 57.35 29.3 56.8167 27.8834 56.1C27.1 55.7 26.3334 55.25 25.6167 54.7333C25.3167 54.5167 25.0334 54.2833 24.75 54.0333C23.95 53.3667 23.2334 52.65 22.5667 51.9167C22.4667 51.8167 22.3834 51.7167 22.3 51.6167C22.2 51.5167 22.1 51.4 22.0167 51.3C21.3834 50.5 20.85 49.6833 20.4167 48.8167C20.0167 48.05 19.7 47.2333 19.45 46.3333C19.35 46.0167 19.2667 45.7167 19.2 45.3833C19.1834 45.3667 19.1667 45.3333 19.1667 45.3C19 44.6167 18.85 43.9 18.7667 43.1833C18.6667 42.6333 18.6167 42.0833 18.6167 41.5167C18.5834 41.3 18.5834 41.0667 18.5834 40.85L21.7667 35.9333L24.8834 31.1333L26.3 28.95L27.5834 26.9833L28.0167 26.3V24.5833C28.05 24.2 28.0667 23.8 28.05 23.4333C28.0334 22.2667 27.8 21.1333 27.4167 20.05C27.05 18.9 26.5334 17.8167 26 16.8167C25.3667 15.6667 24.7 14.6333 24.15 13.7C23.3334 12.3333 22.7667 11.2167 22.9167 10.4333C24.1167 10.15 25.3834 10 26.6667 10H53.3334C60.3 10 66.3 14.3333 68.7834 20.4333C69.05 21.0833 69.2834 21.7667 69.45 22.4667Z" fill="#304FFE"/>
<path d="M70 26.6667V27.1167L67.7 28.45L66.2334 29.3L64.6167 30.2333L61.3834 32.1167L58.2167 33.95L54.9834 35.8167L53.7 36.5667C53.7 37.3667 53.5 38.1 53.1334 38.7667C52.6167 39.7333 51.75 40.5333 50.65 41.2167C49.5334 41.9 48.1667 42.45 46.6334 42.85C46.6334 42.85 46.6334 42.8333 46.6167 42.85C40.6834 44.3833 32.5834 43.6833 28.65 40.75C27.55 39.9333 26.7834 38.9333 26.45 37.7833C26.35 37.4 26.3 36.9833 26.3 36.5667V24.5833C26.3167 24.3333 26.15 24.0833 25.85 23.8333C24.95 23.1167 22.8334 22.4333 20.4667 21.75C18.6167 21.2333 16.6334 20.7167 14.9667 20.2167C13.65 19.8167 12.5334 19.4167 11.8667 19.0333C12.1667 18.45 12.5167 17.8667 12.8834 17.3167C15.2167 13.9 18.7834 11.3833 22.9167 10.4333C24.1167 10.15 25.3834 10 26.6667 10H44.6667C53.6167 11.5667 61.8667 15.2167 68.7834 20.4333C69.05 21.0833 69.2834 21.7667 69.45 22.4667C69.75 23.5667 69.9334 24.7 69.9834 25.8833C70 26.1333 70 26.4 70 26.6667Z" fill="#4928F4"/>
<path d="M70 26.6667V34.0167L69.6333 35.15L68.3833 39.0333L67.0833 43.0333L66.4 45.1667L65.7667 47.15L65.15 49.0333L64.55 50.9L64.2333 51.8833L63.8167 53.1833C63.8167 54.45 63.7833 55.5667 63.7 56.5167C63.6833 56.6167 63.6667 56.7167 63.6667 56.8167C63.5667 57.7 63.4333 58.45 63.2167 59.0833C63.2 59.1833 63.1667 59.2833 63.1333 59.3667C62.7 60.5667 62.05 61.3333 61.0833 61.8333C60.85 61.9667 60.5833 62.0667 60.3 62.1667C59.4167 62.4667 58.3 62.6167 56.9333 62.7C55.9333 62.7667 54.7833 62.7833 53.4833 62.7833H52.3333L50.35 62.7L50 62.6833L46.3833 62.5333L42.7167 62.3833L30.6333 61.8833L27.5 61.75H27.0667C25.7667 61.7333 24.65 61.65 23.6833 61.5167C22.2833 61.3 21.2 60.9333 20.3833 60.3833C19.2167 59.6333 18.5333 58.5333 18.1333 57C18.0333 56.6333 17.95 56.25 17.9 55.8333C17.7333 54.8667 17.65 53.75 17.6 52.5C17.6 52.25 17.6 52 17.5833 51.7333C17.5667 51.7167 17.5833 51.7167 17.5833 51.7167V50.75C17.5667 50.2667 17.5667 49.7667 17.5667 49.25L17.65 46.5667L17.7 44.65L17.7667 42.4167V42.1L17.8833 38L18 33.9L18.1167 30.05L18.2167 26.2667L18.25 25.2667C18.25 24.75 16.5 24.45 14.55 24.2C13 24 11.3 23.8167 10.2833 23.5833C10.3667 23.2 10.45 22.8167 10.55 22.45C10.85 21.25 11.3 20.1167 11.8667 19.0333C12.1667 18.45 12.5167 17.8667 12.8833 17.3167C16.4833 15.7333 20.2333 14.5 24.15 13.7C27.5833 12.9833 31.1667 12.6 34.8667 12.6C47.1333 12.6 58.4667 16.75 67.4333 23.75C68.3 24.4167 69.15 25.1333 69.9833 25.8833C70 26.1333 70 26.4 70 26.6667Z" fill="#6200EA"/>
<path d="M70 30.6167V38.1833L69.0833 39.95L67.3333 43.3667L66.4 45.1667L65.55 46.8167L65.1833 47.5333C65.1833 48.05 65.1833 48.55 65.15 49.0333C65.15 49.75 65.1167 50.4333 65.0667 51.0667C65 51.8167 64.9 52.5 64.8 53.1333C64.55 54.45 64.2 55.5833 63.7 56.5167C63.6333 56.6333 63.5667 56.75 63.5 56.85C63.3167 57.15 63.1 57.4333 62.8667 57.7C62.5667 58.0667 62.2333 58.3833 61.85 58.65C61.2833 59.0833 60.6167 59.4333 59.85 59.7C58.9 60.05 57.8 60.2833 56.5 60.4167C55.65 60.5 54.7167 60.55 53.7 60.55L53 60.5833L49.5333 60.7833H49.5167L45.8333 61L42.0833 61.2167L36.9167 61.5167L30.6333 61.8833L29.7167 61.9333C28.8667 61.9333 28.0667 61.8833 27.3 61.7833C27.2167 61.7667 27.15 61.75 27.0667 61.75C25.9333 61.5667 24.9 61.2667 23.9667 60.85C22.8333 60.35 21.85 59.6833 21.0167 58.8833C20.2833 58.1667 19.65 57.35 19.1333 56.4333C19.0167 56.2167 18.9 56.0167 18.8 55.7833C18.3 54.8 17.9 53.7 17.6 52.5C17.55 52.3 17.5 52.0833 17.4667 51.8667C17.3667 51.4833 17.2833 51.0833 17.2333 50.6667C17.05 49.6 16.95 48.4667 16.9 47.2833V47.2667C16.8833 46.7833 16.8667 46.3167 16.8667 45.8167L16.05 43.8667L15.9333 43.5667L15.8333 43.3167L14.5833 40.3333L14.3833 39.85L13.1833 36.9667L11.85 33.75C11.85 33.75 11.85 33.75 11.8333 33.75L10.4833 30.5L10 29.3167V26.6667C10 25.6167 10.1 24.5833 10.2833 23.5833C10.3667 23.2 10.45 22.8167 10.55 22.45C11.9667 21.6333 13.45 20.8833 14.9667 20.2167C18.4333 18.6667 22.15 17.5167 26 16.8167C28.8667 16.3 31.85 16.0167 34.8667 16.0167C47.05 16.0167 58.1 20.4333 66.7333 27.6333C67.0667 27.9 67.3833 28.1667 67.7 28.45C68.4833 29.1333 69.25 29.85 70 30.6167Z" fill="#673AB7"/>
<path d="M70 35.5833V44.15L69.05 46.1333L67.25 49.8833L67.2333 49.9333C67.2333 50.65 67.2 51.3 67.15 51.8833C66.9833 53.8 66.5167 55.0167 65.75 55.7667C65.2 56.3333 64.5167 56.65 63.6667 56.8167C63.6167 56.8333 63.55 56.8333 63.5 56.85C63.2333 56.9 62.95 56.9333 62.65 56.9333C61.6167 57.0333 60.4 56.9667 59 56.8667C58.85 56.8667 58.6833 56.85 58.5167 56.8333C57.5 56.7667 56.4167 56.7 55.2167 56.65C54.5667 56.6334 53.8833 56.6167 53.1833 56.6167H53.15L51.4667 56.75H51.45L47.6667 57.0167L43.35 57.35L42.7167 57.4L37.6667 57.7667L35.05 57.9667L32.4667 58.15C32.0167 58.15 31.5833 58.15 31.15 58.1334C31.15 58.1334 31.1333 58.1167 31.1333 58.1334C29.25 58.1 27.5667 57.9833 26.0667 57.7C24.6833 57.4667 23.4667 57.1 22.4333 56.55C21.3667 56.0333 20.4833 55.3 19.7667 54.3667C19.0833 53.45 18.5833 52.3 18.2667 50.9167C18.2667 50.9 18.2667 50.9 18.2667 50.9C18.0333 49.7833 17.9 48.4833 17.9 47.0167L17.65 46.5667L16.1667 43.9167L15.95 43.55L15.8333 43.3167L14.2833 40.5667L13.5167 39.1833L12.55 37.4667L10.8833 34.4833L10 32.9167V26.7833C11.4667 25.8167 12.9833 24.9667 14.55 24.2C16.45 23.2333 18.4167 22.4167 20.4667 21.75C22.7 21.0167 25.0333 20.4333 27.4167 20.05C29.8333 19.65 32.3167 19.45 34.8667 19.45C46.2 19.45 56.6 23.5 64.6167 30.2333C64.9833 30.5167 65.3333 30.8333 65.6833 31.1333C67.0833 32.3833 68.4167 33.7333 69.6333 35.15C69.7667 35.3 69.9 35.4333 70 35.5833Z" fill="#8E24AA"/>
<path d="M70 41.1833V53.2333C69.6 53 69.05 52.7167 68.3667 52.4167C68 52.2333 67.5833 52.05 67.15 51.8833C66.5167 51.6 65.8333 51.3333 65.0667 51.0667C64.9 51 64.7333 50.95 64.55 50.9C64.25 50.7833 63.9333 50.6833 63.6167 50.5833C62.6333 50.2833 61.55 50 60.4167 49.75C59.9833 49.6667 59.5333 49.5833 59.0833 49.5167C57.6333 49.2667 56.0833 49.1167 54.4667 49.1C54.3333 49.0833 54.1833 49.0833 54.05 49.0833L49.7667 49.1167L43.9333 49.15H43.9167L31.4333 49.25C27.4667 49.25 25.0333 50.2 23.5667 50.5833C23.5667 50.5833 23.55 50.5833 23.55 50.6C22 51 21.5167 50.75 21.3833 48.0333C21.35 47.2833 21.3333 46.3167 21.3333 45.1333L20.4 44.4167L18.7667 43.1833L17.7667 42.4167L17.5667 42.2667L14.8 40.1667L14.3833 39.85L13.5167 39.1833L11.9167 37.9833L10 36.5167V30.85C10.1667 30.7167 10.3167 30.6 10.4833 30.5C12.9 28.8333 15.4833 27.4167 18.2167 26.2667C20.65 25.2333 23.2167 24.4167 25.85 23.8333C26.5667 23.6833 27.3 23.5333 28.05 23.4333C30.2667 23.05 32.55 22.8667 34.8667 22.8667C44.8833 22.8667 54.0833 26.35 61.3833 32.1167C62.4833 32.9833 63.55 33.9 64.55 34.8833C65.9167 36.1833 67.2 37.5667 68.3833 39.0333C68.6167 39.3333 68.85 39.6333 69.0833 39.95C69.4 40.35 69.7 40.7667 70 41.1833Z" fill="#C2185B"/>
<path d="M70 47.8667V53.3333C70 54.4167 69.9 55.4833 69.7 56.5167C69.4 58.05 68.8833 59.5167 68.1833 60.8833C67.8167 60.9667 67.4 60.9667 66.9333 60.9C65.8833 60.7167 64.65 60.1667 63.3167 59.45C63.25 59.4333 63.1833 59.4 63.1333 59.3667C62.7167 59.15 62.2833 58.9167 61.85 58.65C60.9667 58.1667 60.0333 57.6333 59.1 57.1333C58.9 57.0333 58.7 56.9333 58.5167 56.8333C57.45 56.2833 56.35 55.7833 55.25 55.4C55.25 55.4 55.25 55.4 55.2333 55.4C55 55.3167 54.75 55.2333 54.5 55.1667C53.55 54.9 52.5833 54.7333 51.65 54.7333L49.8167 54.2L41.7 51.85C41.7 51.85 41.7 51.85 41.6833 51.85L36.7 50.4H36.6833L34.5167 49.7667C28.25 49.7667 24.4 52.4333 22.5333 51.4167C21.8 51.0333 21.3667 50.0667 21.2167 48.1667C21.1667 47.6333 21.15 47.0333 21.15 46.3333L19.2 45.3833L19.1167 45.35H19.1L17.7 44.65L16.1667 43.9167L16.05 43.8667L15.7667 43.7167L12.5 42.1333L10 40.9167V35.2C10.2833 34.95 10.5833 34.7167 10.8833 34.4833C11.2 34.2333 11.5167 34 11.8333 33.75C11.85 33.75 11.85 33.75 11.85 33.75C13.8167 32.3333 15.9 31.0833 18.1167 30.05C20.7 28.8167 23.45 27.8667 26.3 27.25C26.7167 27.15 27.15 27.05 27.5833 26.9833C29.95 26.5333 32.3833 26.3 34.8667 26.3C43.65 26.3 51.7167 29.15 58.2167 33.95C60.1 35.35 61.85 36.9 63.45 38.5833C64.7667 39.9667 65.9833 41.4667 67.0833 43.0333C67.1667 43.15 67.25 43.2667 67.3333 43.3667C67.95 44.2667 68.5167 45.1833 69.05 46.1333C69.4 46.7 69.7 47.2833 70 47.8667Z" fill="#D81B60"/>
<path d="M69.7 56.5167C69.4 58.05 68.8833 59.5167 68.1833 60.8833C67.8667 61.5 67.5167 62.0833 67.1333 62.65C66.9 63 66.65 63.3333 66.4 63.65C65.8 63.4167 64.9167 63.0833 63.8333 62.7167C63.8333 62.7167 63.8333 62.7167 63.8333 62.7C63.0167 62.4167 62.0833 62.1167 61.0833 61.8333C60.8 61.75 60.5167 61.6667 60.2167 61.5833C59.0333 61.2667 57.8 60.9833 56.6 60.8167C55.6 60.65 54.6167 60.55 53.7 60.55L52.9333 60.3333H52.9167L48.8833 59.1667L46.4 58.45L43.6333 57.65H43.6167L42.7167 57.4L31.8333 54.2667L28.7 53.3667L26.3667 52.8167L22.5667 51.9167L22.1 51.8C22.1 51.8 22.1 51.8 22.0833 51.8L18.2667 50.9167C18.2667 50.9 18.2667 50.9 18.2667 50.9L17.5833 50.75L17.2333 50.6667L14.45 50.0167L14.1333 49.9333L11.7667 47.9833L10 46.5V39.7C10.6167 39.1 11.25 38.5333 11.9167 37.9833C12.1167 37.8 12.3333 37.6333 12.55 37.4667C12.75 37.3 12.9667 37.1333 13.1833 36.9667C14.7 35.8167 16.3 34.7833 18 33.9C20.1667 32.7333 22.4667 31.8 24.8833 31.1333C25.35 30.9833 25.8167 30.85 26.3 30.75C29.0333 30.0667 31.9 29.7167 34.8667 29.7167C42.3167 29.7167 49.25 31.9667 54.9833 35.8167C57.8333 37.7333 60.4 40.0333 62.5667 42.65C63.6667 43.9667 64.6667 45.35 65.55 46.8167C65.6333 46.9333 65.7 47.0333 65.7667 47.15C66.3 48.0333 66.8 48.95 67.25 49.8833C67.6667 50.7167 68.0333 51.55 68.3667 52.4167C68.9 53.75 69.3333 55.1167 69.7 56.5167Z" fill="#F50057"/>
<path d="M67.1333 62.65C66.9 63 66.65 63.3333 66.4 63.65C65.6667 64.5667 64.8667 65.4 63.9667 66.1333C63.1833 66.7833 62.35 67.3667 61.4667 67.8667C61.1333 67.7833 60.8 67.6833 60.45 67.55C59.35 67.1667 58.2 66.5333 57.1333 65.8667C55.5333 64.85 54.15 63.75 53.5333 63.25C53.3 63.05 53.1833 62.95 53.1833 62.95L50.35 62.7L50 62.6667L46.3333 62.35L42.5333 62.0167L36.9167 61.5167L28.0167 60.7333L27.9833 60.7167L24.85 59.2L21.6833 57.6667L19.1333 56.4333L18.5833 56.1667L17.9 55.8333L15.5333 54.6833L12.3833 53.1667L11.4 52.6833L10 52.25V44.8C10.7833 43.8667 11.6167 42.9833 12.5 42.1333C13.0667 41.6 13.6667 41.0667 14.2833 40.5667C14.3833 40.4833 14.4833 40.4 14.5833 40.3333C14.65 40.25 14.7333 40.2 14.8 40.1667C15.7833 39.3667 16.8167 38.65 17.8833 38C19.1167 37.2167 20.4167 36.5167 21.7667 35.9333C23.2167 35.2833 24.7333 34.7333 26.3 34.3167C29.0167 33.55 31.9 33.15 34.8667 33.15C41.6667 33.15 47.95 35.2167 53.1333 38.7667C56.45 41.0333 59.3167 43.9 61.5833 47.2167C62.3333 48.2833 63 49.4167 63.6167 50.5833C63.8333 51.0167 64.05 51.45 64.2333 51.8833C64.4333 52.3 64.6167 52.7167 64.8 53.1333C65.15 54 65.4667 54.8667 65.75 55.7667C66.2833 57.4333 66.6833 59.1333 66.9333 60.9C67.0167 61.4833 67.0833 62.0667 67.1333 62.65Z" fill="#FF1744"/>
<path d="M63.9833 65.7C63.9833 65.8333 63.9833 65.9833 63.9667 66.1333C63.1833 66.7833 62.35 67.3667 61.4667 67.8667C61.1 68.0667 60.7333 68.2667 60.35 68.4333C59.9667 68.6167 59.5833 68.7833 59.1833 68.9333C58.6167 68.6333 57.85 68.2667 57.0333 67.9167C55.8833 67.4 54.6333 66.9333 53.6667 66.7833C53.4333 66.7333 53.2167 66.7167 53.0167 66.7167L50.2833 66.3667H50.25L46.85 65.9167L43.4167 65.4667L41.8167 65.2667L29.2167 63.6333C28.4 63.6333 27.5333 63.5833 26.6333 63.4667C25.5333 63.3667 24.3833 63.2 23.2333 62.9667C22.1 62.7667 20.95 62.5 19.85 62.2167C18.7 61.95 17.5667 61.6333 16.5167 61.3333C15.3 60.9667 14.1667 60.6167 13.2167 60.3C12.4333 60.05 11.7667 59.8167 11.25 59.6333C10.95 58.9167 10.7 58.1667 10.5167 57.4C10.1667 56.1 10 54.7333 10 53.3333V50.55C10.5333 49.6667 11.1167 48.8 11.7667 47.9833C12.95 46.4167 14.3 44.9833 15.7667 43.7167C15.8167 43.65 15.8833 43.6 15.9333 43.5667L15.95 43.55C16.4667 43.0833 17 42.6667 17.5667 42.2667C17.6333 42.2 17.7 42.15 17.7667 42.1C18.0333 41.9 18.3167 41.7 18.6167 41.5167C21 39.9 23.6333 38.6333 26.45 37.7833C29.1167 36.9833 31.9333 36.5667 34.8667 36.5667C40.6833 36.5667 46.1167 38.2833 50.65 41.2167C54 43.3667 56.8833 46.2 59.0833 49.5167C59.35 49.9 59.6 50.2833 59.85 50.6833C61 52.6333 61.95 54.7333 62.65 56.9333C62.7333 57.1833 62.8 57.4333 62.8667 57.7C63 58.15 63.1167 58.6167 63.2167 59.0833C63.25 59.2 63.2833 59.3167 63.3167 59.45C63.55 60.5 63.7167 61.6 63.8333 62.7C63.8333 62.7167 63.8333 62.7167 63.8333 62.7167C63.9333 63.7 63.9833 64.7 63.9833 65.7Z" fill="#FF5722"/>
<path d="M60.5501 65.7C60.5501 66.2833 60.5167 66.9167 60.4501 67.55C60.4167 67.85 60.3834 68.15 60.3501 68.4333C59.9667 68.6167 59.5834 68.7833 59.1834 68.9333C58.4334 69.2167 57.6667 69.45 56.8834 69.6167C56.3501 69.7333 55.8001 69.8333 55.2501 69.8833H55.2334C54.7167 69.5667 54.1167 69.1833 53.5001 68.75C52.3834 67.9667 51.2167 67.0833 50.2834 66.3667C50.2667 66.35 50.2667 66.35 50.2501 66.3333C49.2667 65.5833 48.5667 65.0167 48.5667 65.0167L46.8001 65.0833L43.4001 65.2L41.8167 65.2667L35.4501 65.5L30.0667 65.7C29.7167 65.7167 29.3001 65.7167 28.7834 65.7H28.7667C28.0667 65.6833 27.2334 65.6333 26.3167 65.55C25.2501 65.4667 24.0834 65.3667 22.9001 65.25C21.7501 65.1167 20.5834 64.9833 19.4667 64.85C18.2334 64.7167 17.0667 64.5667 16.0667 64.4333C15.2834 64.3333 14.6001 64.25 14.0501 64.1833C13.5834 63.65 13.1667 63.1 12.7667 62.5C12.1667 61.6 11.6501 60.65 11.2501 59.6333C10.9501 58.9167 10.7001 58.1667 10.5167 57.4C11.0001 55.9167 11.6334 54.5167 12.3834 53.1667C12.9834 52.0667 13.6834 51.0167 14.4501 50.0167C15.2001 49.0333 16.0167 48.1167 16.9001 47.2833V47.2667C17.1501 47.0167 17.4001 46.7833 17.6501 46.5667C18.1167 46.1333 18.6001 45.7333 19.1001 45.35H19.1167C19.1334 45.3167 19.1501 45.3167 19.1667 45.3C19.5667 44.9833 19.9834 44.7 20.4001 44.4167C22.8667 42.7333 25.6501 41.4833 28.6501 40.75C30.6334 40.2667 32.7167 40 34.8667 40C39.1001 40 43.1001 41.0167 46.6167 42.85H46.6334C49.6501 44.4 52.3167 46.5333 54.4667 49.1C55.6501 50.4667 56.6667 51.9667 57.5001 53.55C58.0834 54.6167 58.5834 55.7333 59.0001 56.8667C59.0334 56.9667 59.0667 57.05 59.1001 57.1333C59.3834 57.9667 59.6334 58.8333 59.8501 59.7C60.0001 60.3167 60.1167 60.95 60.2167 61.5833C60.2501 61.7833 60.2834 61.9667 60.3001 62.1667C60.4667 63.3167 60.5501 64.5 60.5501 65.7Z" fill="#FF6F00"/>
<path d="M57.1334 65.7V65.8667C57.1334 66.4333 57.0834 67.15 57.0334 67.9167C56.9834 68.4833 56.9334 69.0667 56.8834 69.6167C56.3501 69.7333 55.8001 69.8333 55.2501 69.8833H55.2334C54.6001 69.9667 53.9834 70 53.3334 70H50.4167L49.7834 69.8167L46.5001 68.8167L43.1667 67.8167L35.4501 65.5L32.1167 64.5C32.1167 64.5 30.7334 65.05 28.7834 65.7H28.7667C28.0167 65.95 27.2001 66.2167 26.3334 66.4833C25.2501 66.8 24.1001 67.1166 22.9667 67.3666C21.8001 67.6333 20.6501 67.8333 19.6167 67.9167C19.3001 67.95 18.9834 67.9667 18.7001 67.9667C17.7667 67.45 16.8667 66.8333 16.0501 66.15C15.3334 65.55 14.6667 64.9 14.0501 64.1833C13.5834 63.65 13.1667 63.1 12.7667 62.5C12.8834 61.75 13.0167 61.0167 13.2167 60.3C13.7167 58.3167 14.5001 56.4167 15.5334 54.6833C16.1001 53.7 16.7334 52.75 17.4667 51.8667C17.4834 51.8167 17.5334 51.7667 17.5834 51.7333C17.5667 51.7167 17.5834 51.7167 17.5834 51.7167C17.8001 51.4333 18.0334 51.1667 18.2667 50.9167C18.2667 50.9 18.2667 50.9 18.2667 50.9C18.9501 50.1667 19.6501 49.4667 20.4167 48.8167C20.6834 48.6 20.9334 48.3833 21.2167 48.1667C21.2667 48.1167 21.3167 48.0833 21.3834 48.0333C25.1334 45.1667 29.8167 43.4333 34.8667 43.4333C40.6001 43.4333 45.8167 45.5833 49.7667 49.1167C51.6667 50.8333 53.2834 52.8833 54.5001 55.1667C54.6001 55.3333 54.7001 55.5167 54.7834 55.7C54.9334 56 55.0834 56.3167 55.2167 56.65C55.7667 57.85 56.2001 59.1167 56.5001 60.4167C56.5334 60.55 56.5667 60.6833 56.6001 60.8167C56.7334 61.4333 56.8501 62.0667 56.9334 62.7C57.0667 63.6833 57.1334 64.6833 57.1334 65.7Z" fill="#FF9800"/>
<path d="M53.7001 65.7C53.7001 66.0333 53.6834 66.4 53.6667 66.7833C53.6334 67.4 53.5834 68.0667 53.5 68.75C53.4667 69.1667 53.4001 69.5833 53.3334 70H44.2001L42.4334 69.7167L35.5334 68.6167L34.5501 68.4667L32.3001 68.1C31.3167 68.1 29.1834 68.5333 26.9334 68.95C25.7501 69.1667 24.5501 69.4 23.4667 69.55C23.3334 69.5667 23.2001 69.5833 23.0834 69.6H23.0667C21.9001 69.35 20.7667 68.9667 19.7001 68.4667C19.3667 68.3167 19.0334 68.15 18.7001 67.9667C17.7667 67.45 16.8667 66.8333 16.0501 66.15C16.0334 65.95 16.0167 65.7833 16.0167 65.7C16.0167 65.2667 16.0334 64.85 16.0667 64.4333C16.1334 63.3667 16.2834 62.3333 16.5167 61.3333C16.8834 59.8167 17.4167 58.35 18.1334 57C18.2667 56.7167 18.4167 56.4333 18.5834 56.1667C18.6501 56.0333 18.7334 55.9167 18.8001 55.7833C19.1001 55.3 19.4334 54.8333 19.7667 54.3667C20.4667 53.45 21.2501 52.5833 22.0834 51.8C22.1001 51.8 22.1001 51.8 22.1001 51.8C22.1667 51.7333 22.2334 51.6667 22.3001 51.6167C22.3834 51.55 22.4501 51.4667 22.5334 51.4167C22.8667 51.1167 23.2001 50.85 23.5501 50.6C23.5501 50.5833 23.5667 50.5833 23.5667 50.5833C26.7167 48.2333 30.6167 46.85 34.8667 46.85C38.1667 46.85 41.2334 47.6833 43.9167 49.15H43.9334C46.2334 50.4167 48.2334 52.1333 49.8167 54.2C50.4334 55 50.9834 55.85 51.4501 56.75H51.4667C51.5501 56.9167 51.6334 57.0833 51.7167 57.25C52.2167 58.2333 52.6167 59.2667 52.9167 60.3333H52.9334C52.9501 60.4167 52.9834 60.5 53 60.5833C53.2001 61.3 53.3667 62.0333 53.4834 62.7833C53.5001 62.9333 53.5167 63.1 53.5334 63.25C53.6501 64.05 53.7001 64.8667 53.7001 65.7Z" fill="#FFC107"/>
<path d="M50.2833 65.5167C50.2833 65.7833 50.2833 66.0667 50.25 66.3333V66.35C50.25 66.3667 50.25 66.3667 50.25 66.3667C50.2166 67.5667 50.05 68.75 49.7833 69.8167C49.7833 69.8833 49.7666 69.9333 49.7333 70H41.95L35.5333 68.6167L34.6833 68.4333L34.5499 68.4667L27.4333 69.9333L27.1166 70H26.6666C25.6 70 24.55 69.9 23.5333 69.7C23.3833 69.6667 23.2333 69.6333 23.0833 69.6H23.0666C21.9 69.35 20.7666 68.9667 19.7 68.4667C19.6666 68.2833 19.6333 68.1 19.6166 67.9167C19.5 67.2 19.45 66.45 19.45 65.7C19.45 65.4167 19.45 65.1333 19.4666 64.85C19.5166 63.95 19.65 63.0667 19.85 62.2167C19.9833 61.5833 20.1666 60.9667 20.3833 60.3833C20.5666 59.8667 20.7833 59.3667 21.0166 58.8833C21.2166 58.4667 21.45 58.0667 21.6833 57.6667C21.9166 57.2833 22.1666 56.9167 22.4333 56.55C23.1 55.6333 23.8833 54.7833 24.75 54.0333C25.25 53.6 25.8 53.1833 26.3666 52.8167C28.8 51.2167 31.7166 50.2833 34.8666 50.2833C35.4833 50.2833 36.0833 50.3167 36.6666 50.4H36.7C38.4833 50.6 40.15 51.1 41.6833 51.85C41.7 51.85 41.7 51.85 41.7 51.85C44.1166 53.0333 46.1666 54.8167 47.6666 57.0167C47.9166 57.3833 48.1666 57.7833 48.3833 58.1833C48.5666 58.5 48.7333 58.8333 48.8833 59.1667C49.1166 59.6833 49.3333 60.2333 49.5166 60.7833H49.5333C49.7166 61.4 49.8833 62.0167 50 62.6667V62.6833C50.1833 63.6 50.2833 64.55 50.2833 65.5167Z" fill="#FFD54F"/>
<path d="M46.85 65.8667V65.9167C46.85 66.9 46.7334 67.8667 46.5 68.8167C46.4167 69.2167 46.3 69.6167 46.15 70H38.6834L34.8667 68.95L31.05 70H26.6667C25.6 70 24.55 69.9 23.5334 69.7C23.5 69.65 23.4834 69.6 23.4667 69.55C23.2334 68.8333 23.05 68.1167 22.9667 67.3667C22.9 66.8833 22.8667 66.3833 22.8667 65.8667C22.8667 65.6667 22.8667 65.45 22.9 65.25C22.9167 64.4667 23.0334 63.7 23.2334 62.9667C23.3334 62.4667 23.4834 61.9833 23.6834 61.5167C23.75 61.2833 23.85 61.0667 23.9667 60.85C24.2167 60.2833 24.5167 59.7333 24.85 59.2C25.2167 58.6667 25.6167 58.1667 26.0667 57.7C26.6 57.1 27.2 56.55 27.8834 56.1C29.05 55.25 30.3834 54.6167 31.8334 54.2667C32.8 54 33.8167 53.8667 34.8667 53.8667C38.2 53.8667 41.1834 55.2 43.35 57.35C43.4334 57.4333 43.5334 57.5333 43.6167 57.65H43.6334C43.8667 57.9 44.0834 58.15 44.3 58.4333C44.9167 59.2167 45.4334 60.0667 45.8334 61C46.0334 61.4333 46.2 61.8833 46.3334 62.35C46.35 62.4167 46.3667 62.4667 46.3834 62.5333C46.6167 63.35 46.7667 64.2 46.8 65.0833C46.8334 65.3333 46.85 65.6 46.85 65.8667Z" fill="#FFE082"/>
<path d="M43.4334 65.8667C43.4334 66.55 43.35 67.2 43.1667 67.8167C43 68.4833 42.75 69.1167 42.4334 69.7167C42.3834 69.8167 42.2667 70 42.2667 70H27.4667C27.45 69.9833 27.4334 69.95 27.4334 69.9333C27.2334 69.6167 27.0667 69.3 26.9334 68.95C26.6 68.1833 26.4 67.35 26.3334 66.4833C26.3 66.2833 26.3 66.0667 26.3 65.8667C26.3 65.7667 26.3 65.65 26.3167 65.55C26.3334 64.8167 26.4334 64.1167 26.6334 63.4667C26.8 62.8667 27.0167 62.3167 27.3 61.7833C27.3 61.7833 27.3167 61.7667 27.3167 61.75C27.5167 61.4 27.7334 61.05 27.9834 60.7167C28.8001 59.6167 29.8834 58.7167 31.1334 58.1333C31.1501 58.1333 31.1501 58.1333 31.1501 58.1333C31.5501 57.9333 31.9667 57.7667 32.4001 57.65C32.4001 57.65 32.4001 57.65 32.4167 57.65C33.1834 57.4167 34.0167 57.3 34.8667 57.3C35.85 57.3 36.8001 57.45 37.6667 57.7667C37.9834 57.85 38.2834 57.9833 38.5834 58.1333C38.5834 58.1333 38.5834 58.1333 38.6 58.1333C40.0334 58.8167 41.25 59.8833 42.0834 61.2167C42.25 61.4667 42.4001 61.7333 42.5334 62.0167C42.6 62.1333 42.6667 62.2667 42.7167 62.3833C43.1 63.25 43.3334 64.2 43.4001 65.2C43.4167 65.2833 43.4167 65.3667 43.4167 65.4667C43.4334 65.6 43.4334 65.7333 43.4334 65.8667Z" fill="#FFECB3"/>
<path d="M50 18.3333H30C23.5 18.3333 18.3334 23.5 18.3334 30V50C18.3334 56.5 23.5 61.6667 30 61.6667H50C56.5 61.6667 61.6667 56.5 61.6667 50V30C61.6667 23.5 56.5 18.3333 50 18.3333Z" stroke="white" stroke-width="2" stroke-miterlimit="10" stroke-linecap="round" stroke-linejoin="round"/>
<path d="M51.6667 28.3333C52.5871 28.3333 53.3333 27.5871 53.3333 26.6667C53.3333 25.7462 52.5871 25 51.6667 25C50.7462 25 50 25.7462 50 26.6667C50 27.5871 50.7462 28.3333 51.6667 28.3333Z" fill="white"/>
<path d="M40 50C45.5228 50 50 45.5228 50 40C50 34.4772 45.5228 30 40 30C34.4772 30 30 34.4772 30 40C30 45.5228 34.4772 50 40 50Z" stroke="white" stroke-width="2" stroke-miterlimit="10" stroke-linecap="round" stroke-linejoin="round"/>
</svg>
