<svg width="402" height="126" viewBox="0 0 402 126" fill="none" xmlns="http://www.w3.org/2000/svg"><path d="M1.00061 74.4149L31.1967 95.3097L52.4746 125.843L63.8578 117.91L75.24 125.786L96.3655 95.2563L126.543 74.2259L118.703 62.9749L126.611 51.5469L95.9568 30.335L74.9267 0.157104L63.6759 7.99741L52.3717 0.175548L31.3908 30.4964L0.857666 51.7741L8.7904 63.1573L1.00061 74.4149ZM6.51636 73.4108L11.2095 66.6285L24.7083 85.9989L6.51636 73.4108ZM53.4606 120.324L40.5289 101.767L60.3789 115.503L53.4606 120.324ZM74.2359 120.271L67.3291 115.491L87.0552 101.745L74.2359 120.271ZM121.025 73.24L102.823 85.9239L116.296 66.4543L121.025 73.24ZM121.096 52.551L116.284 59.5042L102.445 39.6456L121.096 52.551ZM73.9406 5.67621L86.6245 23.8774L67.1549 10.405L73.9406 5.67621ZM53.3761 5.69131L60.2049 10.4167L40.7016 24.0081L53.3761 5.69131ZM34.244 33.3401L63.6839 12.824L93.1129 33.1879L113.877 62.9833L93.5128 92.4122L63.8497 113.084L34.0402 92.4566L13.6168 63.1495L34.244 33.3401ZM6.37678 52.7602L24.9332 39.8286L11.198 59.6783L6.37678 52.7602Z" fill="#8A8ADB"/><path d="M101.946 83.515C101.942 82.2948 101.709 72.7914 95.6715 63.1925C90.0548 54.2617 71.4974 52.8725 65.5572 52.6569V47.961C68.5129 47.157 70.6962 44.4568 70.6962 41.2496C70.6962 37.4103 67.573 34.287 63.7343 34.287C59.8953 34.287 56.7721 37.4102 56.7721 41.2496C56.7721 44.4564 58.9549 47.1566 61.9107 47.961V52.6569C55.9689 52.873 37.4141 54.2625 31.7971 63.1925C25.76 72.7914 25.527 82.2948 25.5225 83.515C25.4502 84.2645 25.2804 87.4173 27.2512 89.6472C28.0844 90.5897 29.6365 91.713 32.3004 91.713H95.1688C97.8328 91.713 99.3845 90.5897 100.218 89.6472C102.188 87.4177 102.019 84.2647 101.946 83.515ZM97.4775 87.2413C96.9815 87.7968 96.2261 88.0667 95.1689 88.0667H32.3005C31.2429 88.0667 30.4877 87.7968 29.9916 87.2413C29.1025 86.2462 29.0875 84.4377 29.1555 83.8339C29.1655 83.754 29.1701 83.6706 29.1693 83.5902C29.1687 83.4981 29.1505 74.2491 34.8842 65.1337C39.4551 57.866 57.2604 56.266 63.7348 56.2629C70.2076 56.2629 88.0083 57.8565 92.5852 65.1341C98.3195 74.2491 98.3003 83.4977 98.2996 83.5871C98.2987 83.6631 98.3038 83.7495 98.3123 83.8246C98.3812 84.4377 98.3662 86.2466 97.4775 87.2413ZM60.4184 41.2495C60.4184 39.4208 61.906 37.9331 63.7343 37.9331C65.5627 37.9331 67.0498 39.4208 67.0498 41.2495C67.0498 43.0777 65.5625 44.5649 63.7343 44.5649C61.906 44.5651 60.4184 43.0777 60.4184 41.2495ZM46.2914 62.6224C40.4342 62.6224 35.669 67.3876 35.669 73.2448C35.669 79.1023 40.4342 83.8678 46.2914 83.8678C52.1493 83.8678 56.9153 79.1022 56.9153 73.2448C56.9153 67.3877 52.1493 62.6224 46.2914 62.6224ZM47.9128 69.3659C50.5028 69.3659 52.6021 71.466 52.6021 74.055C52.6021 76.645 50.5028 78.7443 47.9128 78.7443C45.3221 78.7443 43.2236 76.645 43.2236 74.055C43.2236 71.466 45.3221 69.3659 47.9128 69.3659ZM81.1758 62.6224C75.3188 62.6224 70.5541 67.3876 70.5541 73.2448C70.5541 79.1023 75.3188 83.8678 81.1758 83.8678C87.0336 83.8678 91.7996 79.1022 91.7996 73.2448C91.7996 67.3877 87.0336 62.6224 81.1758 62.6224ZM79.5558 78.7443C76.966 78.7443 74.8675 76.645 74.8675 74.055C74.8675 71.466 76.9661 69.3659 79.5558 69.3659C82.1458 69.3659 84.246 71.466 84.246 74.055C84.246 76.6449 82.1457 78.7443 79.5558 78.7443ZM70.7864 77.6835C71.415 78.4704 71.2869 79.6173 70.5004 80.2462C68.7877 81.6143 66.3215 82.3992 63.7345 82.3992C61.1473 82.3992 58.6813 81.6147 56.9684 80.2462C56.1819 79.6178 56.0533 78.4704 56.682 77.6839C57.3111 76.897 58.458 76.7688 59.2441 77.3976C60.307 78.2462 61.9853 78.753 63.7345 78.753C65.4835 78.753 67.1619 78.2464 68.2239 77.3976C69.0107 76.77 70.1576 76.8977 70.7864 77.6835Z" fill="#8A8ADB"/><path d="M143.617 81.1196C143.617 82.6172 144.347 83.9228 145.806 85.0364C147.265 86.15 149.147 86.7068 151.451 86.7068C153.755 86.7068 155.579 86.15 156.923 85.0364C158.267 83.9228 158.939 82.4444 158.939 80.6012C158.939 78.2588 157.537 76.3196 154.734 74.7836L146.209 70.2332C141.294 67.5836 138.837 63.8012 138.837 58.886C138.837 55.7372 139.989 53.03 142.293 50.7644C144.597 48.4988 148.033 47.366 152.603 47.366C155.675 47.366 158.593 47.9804 161.358 49.2092C164.123 50.438 165.505 51.8972 165.505 53.5868C165.505 54.2396 165.294 54.9884 164.872 55.8332L162.107 61.1324L160.091 60.4988V55.6604C160.091 53.9324 159.323 52.5692 157.787 51.5708C156.289 50.5724 154.485 50.0732 152.373 50.0732C150.299 50.0732 148.705 50.6876 147.592 51.9164C146.478 53.1452 145.921 54.5468 145.921 56.1212C145.921 59.27 147.342 61.5932 150.184 63.0908L157.499 66.95C163.067 69.8684 165.851 73.7084 165.851 78.47C165.851 82.0796 164.488 84.806 161.761 86.6492C159.073 88.4924 155.656 89.414 151.509 89.414C148.398 89.414 145.403 88.7996 142.523 87.5708C139.643 86.342 138.203 84.8828 138.203 83.1932C138.203 82.5404 138.414 81.7916 138.837 80.9468L141.601 75.6476L143.617 76.2812V81.1196ZM172.493 48.23H188.045C194.957 48.23 200.544 50.1116 204.807 53.8748C209.069 57.5996 211.2 62.438 211.2 68.39C211.2 74.3036 209.069 79.142 204.807 82.9052C200.544 86.6684 194.957 88.55 188.045 88.55H172.493V86.246H177.101V50.534H172.493V48.23ZM188.045 50.534H185.741V86.246H188.045C192.499 86.246 195.975 84.6524 198.471 81.4652C201.005 78.2396 202.272 73.8812 202.272 68.39C202.272 62.8988 201.005 58.5596 198.471 55.3724C195.975 52.1468 192.499 50.534 188.045 50.534ZM217.549 50.534V48.23H233.101V50.534H229.645V68.102L241.914 48.23H251.073V50.534H247.905L231.201 69.254H234.945C239.86 69.254 242.874 71.1164 243.988 74.8412L246.407 82.9052C246.676 83.8652 247.021 84.5372 247.444 84.9212C247.866 85.3052 248.577 85.4972 249.575 85.4972C250.573 85.4972 251.745 84.9404 253.089 83.8268L254.125 85.2092C251.053 88.0124 247.789 89.414 244.333 89.414C242.567 89.414 241.146 89.1068 240.071 88.4924C238.996 87.878 238.228 86.8028 237.767 85.2668L234.369 74.0924C234.061 73.0172 233.581 72.2684 232.929 71.846C232.276 71.4236 231.181 71.174 229.645 71.0972V86.246H233.101V88.55H217.549V86.246H221.005V50.534H217.549ZM262.683 50.534V48.23H276.392L287.854 86.246H290.734V88.55H275.873V86.246H279.214L277.083 79.1612H261.416L259.342 86.246H262.683V88.55H252.949V86.246H255.829L266.6 50.534H262.683ZM269.192 53.0108L262.222 76.5692H276.277L269.192 53.0108ZM297.891 59.75C301.424 59.75 304.477 60.7292 307.049 62.6876C309.085 60.1532 311.734 58.886 314.998 58.886C319.414 58.886 322.774 60.326 325.078 63.206C327.382 66.0476 328.534 69.6956 328.534 74.15C328.534 78.566 327.286 82.214 324.79 85.094C322.333 87.974 318.877 89.414 314.422 89.414C311.12 89.414 308.489 87.9356 306.531 84.9788V102.95H297.891V62.054C296.163 62.054 294.627 62.342 293.283 62.918L292.477 60.7868C294.128 60.0956 295.933 59.75 297.891 59.75ZM317.993 82.9052C319.069 80.7548 319.606 77.8364 319.606 74.15C319.606 70.4636 319.069 67.5452 317.993 65.3948C316.918 63.2444 315.267 62.1692 313.04 62.1692C310.851 62.1692 309.161 63.2636 307.971 65.4524C306.819 67.6028 306.243 70.502 306.243 74.15C306.243 77.798 306.819 80.7164 307.971 82.9052C309.161 85.0556 310.851 86.1308 313.04 86.1308C315.267 86.1308 316.918 85.0556 317.993 82.9052ZM339.403 59.75C342.936 59.75 345.989 60.7292 348.562 62.6876C350.597 60.1532 353.247 58.886 356.511 58.886C360.927 58.886 364.287 60.326 366.591 63.206C368.895 66.0476 370.047 69.6956 370.047 74.15C370.047 78.566 368.799 82.214 366.303 85.094C363.845 87.974 360.389 89.414 355.935 89.414C352.632 89.414 350.002 87.9356 348.043 84.9788V102.95H339.403V62.054C337.675 62.054 336.139 62.342 334.795 62.918L333.989 60.7868C335.64 60.0956 337.445 59.75 339.403 59.75ZM359.506 82.9052C360.581 80.7548 361.119 77.8364 361.119 74.15C361.119 70.4636 360.581 67.5452 359.506 65.3948C358.431 63.2444 356.779 62.1692 354.552 62.1692C352.363 62.1692 350.674 63.2636 349.483 65.4524C348.331 67.6028 347.755 70.502 347.755 74.15C347.755 77.798 348.331 80.7164 349.483 82.9052C350.674 85.0556 352.363 86.1308 354.552 86.1308C356.779 86.1308 358.431 85.0556 359.506 82.9052ZM383.854 64.4732C382.932 63.0524 382.471 61.7852 382.471 60.6716C382.471 59.558 382.894 58.5788 383.738 57.734C384.622 56.8508 385.678 56.4092 386.906 56.4092C388.135 56.4092 389.172 56.8508 390.017 57.734C390.9 58.5788 391.342 59.5964 391.342 60.7868C391.342 61.9772 390.746 63.2444 389.556 64.5884C392.705 66.8924 395.124 69.158 396.814 71.3852C398.503 73.574 399.348 76.1276 399.348 79.046C399.348 81.926 398.254 84.3836 396.065 86.4188C393.876 88.4156 390.766 89.414 386.734 89.414C384.89 89.414 383.028 89.0108 381.146 88.2044C379.303 87.398 377.902 86.3996 376.942 85.2092L378.266 83.8268C379.956 85.1708 381.78 85.8428 383.738 85.8428C385.697 85.8428 387.29 85.3244 388.519 84.2876C389.786 83.2124 390.42 81.5612 390.42 79.334C390.42 75.8012 389.114 72.1148 386.503 68.2748L377.806 79.1612L376.366 77.894C379.284 73.1708 381.78 68.6972 383.854 64.4732Z" fill="#8A8ADB"/></svg>
