<svg viewBox="0 0 402 126" fill="none" xmlns="http://www.w3.org/2000/svg"><path d="M1.00061 74.4149L31.1967 95.3097L52.4746 125.843L63.8578 117.91L75.24 125.786L96.3655 95.2563L126.543 74.2259L118.703 62.9749L126.611 51.5469L95.9568 30.335L74.9267 0.157104L63.6759 7.99741L52.3717 0.175548L31.3908 30.4964L0.857666 51.7741L8.7904 63.1573L1.00061 74.4149ZM6.51636 73.4108L11.2095 66.6285L24.7083 85.9989L6.51636 73.4108ZM53.4606 120.324L40.5289 101.767L60.3789 115.503L53.4606 120.324ZM74.2359 120.271L67.3291 115.491L87.0552 101.745L74.2359 120.271ZM121.025 73.24L102.823 85.9239L116.296 66.4543L121.025 73.24ZM121.096 52.551L116.284 59.5042L102.445 39.6456L121.096 52.551ZM73.9406 5.67621L86.6245 23.8774L67.1549 10.405L73.9406 5.67621ZM53.3761 5.69131L60.2049 10.4167L40.7016 24.0081L53.3761 5.69131ZM34.244 33.3401L63.6839 12.824L93.1129 33.1879L113.877 62.9833L93.5128 92.4122L63.8497 113.084L34.0402 92.4566L13.6168 63.1495L34.244 33.3401ZM6.37678 52.7602L24.9332 39.8286L11.198 59.6783L6.37678 52.7602Z" fill="#8A8ADB"/><path d="M101.946 83.515C101.942 82.2948 101.709 72.7914 95.6715 63.1925C90.0548 54.2617 71.4974 52.8725 65.5572 52.6569V47.961C68.5129 47.157 70.6962 44.4568 70.6962 41.2496C70.6962 37.4103 67.573 34.287 63.7343 34.287C59.8953 34.287 56.7721 37.4102 56.7721 41.2496C56.7721 44.4564 58.9549 47.1566 61.9107 47.961V52.6569C55.9689 52.873 37.4141 54.2625 31.7971 63.1925C25.76 72.7914 25.527 82.2948 25.5225 83.515C25.4502 84.2645 25.2804 87.4173 27.2512 89.6472C28.0844 90.5897 29.6365 91.713 32.3004 91.713H95.1688C97.8328 91.713 99.3845 90.5897 100.218 89.6472C102.188 87.4177 102.019 84.2647 101.946 83.515ZM97.4775 87.2413C96.9815 87.7968 96.2261 88.0667 95.1689 88.0667H32.3005C31.2429 88.0667 30.4877 87.7968 29.9916 87.2413C29.1025 86.2462 29.0875 84.4377 29.1555 83.8339C29.1655 83.754 29.1701 83.6706 29.1693 83.5902C29.1687 83.4981 29.1505 74.2491 34.8842 65.1337C39.4551 57.866 57.2604 56.266 63.7348 56.2629C70.2076 56.2629 88.0083 57.8565 92.5852 65.1341C98.3195 74.2491 98.3003 83.4977 98.2996 83.5871C98.2987 83.6631 98.3038 83.7495 98.3123 83.8246C98.3812 84.4377 98.3662 86.2466 97.4775 87.2413ZM60.4184 41.2495C60.4184 39.4208 61.906 37.9331 63.7343 37.9331C65.5627 37.9331 67.0498 39.4208 67.0498 41.2495C67.0498 43.0777 65.5625 44.5649 63.7343 44.5649C61.906 44.5651 60.4184 43.0777 60.4184 41.2495ZM46.2914 62.6224C40.4342 62.6224 35.669 67.3876 35.669 73.2448C35.669 79.1023 40.4342 83.8678 46.2914 83.8678C52.1493 83.8678 56.9153 79.1022 56.9153 73.2448C56.9153 67.3877 52.1493 62.6224 46.2914 62.6224ZM47.9128 69.3659C50.5028 69.3659 52.6021 71.466 52.6021 74.055C52.6021 76.645 50.5028 78.7443 47.9128 78.7443C45.3221 78.7443 43.2236 76.645 43.2236 74.055C43.2236 71.466 45.3221 69.3659 47.9128 69.3659ZM81.1758 62.6224C75.3188 62.6224 70.5541 67.3876 70.5541 73.2448C70.5541 79.1023 75.3188 83.8678 81.1758 83.8678C87.0336 83.8678 91.7996 79.1022 91.7996 73.2448C91.7996 67.3877 87.0336 62.6224 81.1758 62.6224ZM79.5558 78.7443C76.966 78.7443 74.8675 76.645 74.8675 74.055C74.8675 71.466 76.9661 69.3659 79.5558 69.3659C82.1458 69.3659 84.246 71.466 84.246 74.055C84.246 76.6449 82.1457 78.7443 79.5558 78.7443ZM70.7864 77.6835C71.415 78.4704 71.2869 79.6173 70.5004 80.2462C68.7877 81.6143 66.3215 82.3992 63.7345 82.3992C61.1473 82.3992 58.6813 81.6147 56.9684 80.2462C56.1819 79.6178 56.0533 78.4704 56.682 77.6839C57.3111 76.897 58.458 76.7688 59.2441 77.3976C60.307 78.2462 61.9853 78.753 63.7345 78.753C65.4835 78.753 67.1619 78.2464 68.2239 77.3976C69.0107 76.77 70.1576 76.8977 70.7864 77.6835Z" fill="#8A8ADB"/></svg>
