<svg version="1.1" xmlns="http://www.w3.org/2000/svg" xmlns:xlink="http://www.w3.org/1999/xlink" width="24px" height="24px" viewBox="0,0,256,256"><g fill="#ffffff" fill-rule="nonzero" stroke="none" stroke-width="1" stroke-linecap="butt" stroke-linejoin="miter" stroke-miterlimit="10" stroke-dasharray="" stroke-dashoffset="0" font-family="none" font-weight="none" font-size="none" text-anchor="none" style="mix-blend-mode: normal"><g transform="scale(10.66667,10.66667)"><path d="M4,2c-1.09306,0 -2,0.90694 -2,2v7c0,1.09306 0.90694,2 2,2h5c1.09306,0 2,-0.90694 2,-2v-7c0,-1.09306 -0.90694,-2 -2,-2zM15,2c-1.09306,0 -2,0.90694 -2,2v3c0,1.09306 0.90694,2 2,2h5c1.09306,0 2,-0.90694 2,-2v-3c0,-1.09306 -0.90694,-2 -2,-2zM4,4h5v7h-5zM15,4h5v3h-5zM15,11c-1.09306,0 -2,0.90694 -2,2v7c0,1.09306 0.90694,2 2,2h5c1.09306,0 2,-0.90694 2,-2v-7c0,-1.09306 -0.90694,-2 -2,-2zM15,13h5v7h-5zM4,15c-1.09306,0 -2,0.90694 -2,2v3c0,1.09306 0.90694,2 2,2h5c1.09306,0 2,-0.90694 2,-2v-3c0,-1.09306 -0.90694,-2 -2,-2zM4,17h5v3h-5z"></path></g></g></svg>