<svg version="1.1" xmlns="http://www.w3.org/2000/svg" xmlns:xlink="http://www.w3.org/1999/xlink" width="50px" height="50px" viewBox="0,0,256,256"><g fill="#ffffff" fill-rule="nonzero" stroke="none" stroke-width="1" stroke-linecap="butt" stroke-linejoin="miter" stroke-miterlimit="10" stroke-dasharray="" stroke-dashoffset="0" font-family="none" font-weight="none" font-size="none" text-anchor="none" style="mix-blend-mode: normal"><g transform="scale(5.12,5.12)"><path d="M25,2c-12.6907,0 -23,10.3093 -23,23c0,12.69071 10.3093,23 23,23c12.69071,0 23,-10.30929 23,-23c0,-12.6907 -10.30929,-23 -23,-23zM25,4c11.60982,0 21,9.39018 21,21c0,11.60982 -9.39018,21 -21,21c-11.60982,0 -21,-9.39018 -21,-21c0,-11.60982 9.39018,-21 21,-21zM25.28906,12.50781c-3.73,0 -6.20319,2.26013 -6.74219,5.70313c-0.035,0.216 0.07111,0.35853 0.28711,0.39453l2.25977,0.39648c0.216,0.036 0.35853,-0.07211 0.39453,-0.28711c0.43,-2.188 1.72052,-3.4082 3.72852,-3.4082c2.045,0 3.47852,1.29194 3.47852,3.33594c0,1.22 -0.42959,2.04463 -1.68359,3.76563l-2.4043,3.29883c-0.753,1.041 -1.07422,1.79447 -1.07422,3.23047v1.46875c0,0.215 0.14242,0.35947 0.35742,0.35547h2.36719c0.215,0 0.35742,-0.14242 0.35742,-0.35742v-1.14648c0,-1.219 0.21659,-1.72145 0.93359,-2.68945l2.40234,-3.30078c1.22,-1.686 1.82813,-2.94011 1.82813,-4.66211c0,-3.551 -2.61823,-6.09766 -6.49023,-6.09766zM23.71289,33.49219c-0.216,0 -0.35937,0.14437 -0.35937,0.35937v3.08398c0,0.215 0.14238,0.35742 0.35938,0.35742h2.72656c0.214,0 0.35742,-0.14142 0.35742,-0.35742v-3.08398c0,-0.214 -0.14242,-0.35937 -0.35742,-0.35937z"></path></g></g></svg>