<svg version="1.1" xmlns="http://www.w3.org/2000/svg" xmlns:xlink="http://www.w3.org/1999/xlink" width="50px" height="50px" viewBox="0,0,256,256"><g fill="#ffffff" fill-rule="nonzero" stroke="none" stroke-width="1" stroke-linecap="butt" stroke-linejoin="miter" stroke-miterlimit="10" stroke-dasharray="" stroke-dashoffset="0" font-family="none" font-weight="none" font-size="none" text-anchor="none" style="mix-blend-mode: normal"><g transform="scale(5.12,5.12)"><path d="M10,7c-3.8537,0 -7,3.1463 -7,7c0,3.8537 3.1463,7 7,7c3.8537,0 7,-3.1463 7,-7c0,-3.8537 -3.1463,-7 -7,-7zM36,7v2h7.74023l-7.77539,8.55078l-3.96484,-3.96484l-11,11l-3.97266,-3.97266l-13.70508,12.65234l1.35547,1.46875l12.29492,-11.34766l4.02734,4.02734l11,-11l4.03516,4.03516l8.96484,-9.86328v7.41406h2v-11zM10,9c2.7723,0 5,2.2277 5,5c0,2.7723 -2.2277,5 -5,5c-2.7723,0 -5,-2.2277 -5,-5c0,-2.7723 2.2277,-5 5,-5zM9.49023,11.2832l-1.81055,1.81055h1.41406v3.62305h1.8125v-5.43359zM39,20v24h2v-24zM45,22v22h2v-22zM27,25v19h2v-19zM33,25v19h2v-19zM15,30v14h2v-14zM21,31v13h2v-13zM9,35v9h2v-9zM3,39v5h2v-5z"></path></g></g></svg>